<svg width="48" height="48" viewBox="0 0 48 48" fill="none" xmlns="http://www.w3.org/2000/svg">
<path d="M38 41H28V39H38V41ZM42 21C43.1046 21 44 21.8954 44 23V34C44 35.0357 43.2128 35.887 42.2041 35.9893L42 36H24L23.7959 35.9893C22.8543 35.8938 22.1062 35.1457 22.0107 34.2041L22 34V23C22 21.8954 22.8954 21 24 21H42ZM19 35H12V33H19V35ZM24 34H42V23H24V34ZM34 7C35.1046 7 36 7.89543 36 9V18H34V9H6V28H19V30H6L5.7959 29.9893C4.85435 29.8938 4.1062 29.1457 4.01074 28.2041L4 28V9C4 7.96435 4.78722 7.113 5.7959 7.01074L6 7H34Z" fill="white"/>
</svg>
