<svg width="286" height="286" viewBox="0 0 286 286" fill="none" xmlns="http://www.w3.org/2000/svg">
<path d="M286 286H0V0H286V286ZM143.209 23C120.918 22.9612 99.0576 29.1321 80.0771 40.8203C61.0966 52.5087 45.7463 69.2531 35.748 89.1758C25.7499 109.098 21.4989 131.412 23.4707 153.615C25.1587 172.623 31.3501 190.906 41.4746 206.974C44.3012 211.459 50.3542 212.308 54.5996 209.132L137.229 147.317C140.648 144.759 145.346 144.768 148.757 147.338L231.169 209.44C235.403 212.631 241.458 211.804 244.301 207.328C254.481 191.296 260.738 173.034 262.492 154.032C264.541 131.836 260.367 109.507 250.438 89.5498C240.51 69.5925 225.219 52.7945 206.279 41.04C187.34 29.2856 165.5 23.0389 143.209 23Z" fill="#2C2C2C"/>
<g filter="url(#filter0_ii_2920_42879)">
<path d="M231.169 209.44C235.404 212.631 241.459 211.804 244.301 207.328C254.482 191.296 260.737 173.034 262.492 154.032C264.541 131.836 260.367 109.507 250.439 89.55C240.51 69.5925 225.219 52.795 206.279 41.0405C187.34 29.286 165.5 23.0391 143.209 23.0002C120.919 22.9613 99.0577 29.1319 80.0771 40.8202C61.0965 52.5086 45.7467 69.2526 35.7484 89.1753C25.7501 109.098 21.4986 131.412 23.4704 153.615C25.1585 172.623 31.3502 190.906 41.4748 206.974C44.3014 211.46 50.3538 212.308 54.5993 209.132L137.228 147.318C140.648 144.76 145.346 144.768 148.756 147.338L231.169 209.44Z" fill="#1C1C1C" fill-opacity="0.01"/>
</g>
<path d="M143 33V41" stroke="white" stroke-opacity="0.8" stroke-width="0.8"/>
<path d="M238.609 88.2L231.681 92.2" stroke="white" stroke-opacity="0.8" stroke-width="0.8"/>
<path d="M238.609 198.6L231.681 194.6" stroke="white" stroke-opacity="0.8" stroke-width="0.8"/>
<path d="M47.3907 198.6L54.3189 194.6" stroke="white" stroke-opacity="0.8" stroke-width="0.8"/>
<path d="M47.3907 88.2L54.3189 92.2" stroke="white" stroke-opacity="0.8" stroke-width="0.8"/>
<path d="M179.664 42.665L178.023 47.1755" stroke="white" stroke-opacity="0.6" stroke-width="0.8"/>
<path d="M211.907 61.2801L208.821 64.9571" stroke="white" stroke-opacity="0.6" stroke-width="0.8"/>
<path d="M248.571 124.785L243.844 125.618" stroke="white" stroke-opacity="0.6" stroke-width="0.8"/>
<path d="M248.571 162.015L243.844 161.182" stroke="white" stroke-opacity="0.6" stroke-width="0.8"/>
<path d="M37.4285 162.015L42.1556 161.182" stroke="white" stroke-opacity="0.6" stroke-width="0.8"/>
<path d="M37.4285 124.785L42.1556 125.618" stroke="white" stroke-opacity="0.6" stroke-width="0.8"/>
<path d="M74.0931 61.2801L77.1785 64.9571" stroke="white" stroke-opacity="0.6" stroke-width="0.8"/>
<path d="M106.335 42.6649L107.977 47.1755" stroke="white" stroke-opacity="0.6" stroke-width="0.8"/>
<path d="M155.259 38.514L154.888 41.6924" stroke="white" stroke-opacity="0.3" stroke-width="0.8"/>
<path d="M167.353 40.6465L166.615 43.7602" stroke="white" stroke-opacity="0.3" stroke-width="0.8"/>
<path d="M190.393 49.0324L188.957 51.892" stroke="white" stroke-opacity="0.3" stroke-width="0.8"/>
<path d="M201.028 55.1725L199.27 57.846" stroke="white" stroke-opacity="0.3" stroke-width="0.8"/>
<path d="M219.811 70.9329L217.483 73.1289" stroke="white" stroke-opacity="0.3" stroke-width="0.8"/>
<path d="M227.704 80.34L225.137 82.2509" stroke="white" stroke-opacity="0.3" stroke-width="0.8"/>
<path d="M239.964 101.574L237.025 102.841" stroke="white" stroke-opacity="0.3" stroke-width="0.8"/>
<path d="M244.164 113.114L241.098 114.031" stroke="white" stroke-opacity="0.3" stroke-width="0.8"/>
<path d="M248.421 137.26L245.227 137.446" stroke="white" stroke-opacity="0.3" stroke-width="0.8"/>
<path d="M248.421 149.54L245.227 149.354" stroke="white" stroke-opacity="0.3" stroke-width="0.8"/>
<path d="M244.164 173.686L241.098 172.769" stroke="white" stroke-opacity="0.3" stroke-width="0.8"/>
<path d="M239.964 185.226L237.025 183.959" stroke="white" stroke-opacity="0.3" stroke-width="0.8"/>
<path d="M46.0363 185.226L48.9746 183.959" stroke="white" stroke-opacity="0.3" stroke-width="0.8"/>
<path d="M41.8362 173.686L44.9018 172.769" stroke="white" stroke-opacity="0.3" stroke-width="0.8"/>
<path d="M37.5786 149.54L40.7732 149.354" stroke="white" stroke-opacity="0.3" stroke-width="0.8"/>
<path d="M37.5786 137.26L40.7732 137.446" stroke="white" stroke-opacity="0.3" stroke-width="0.8"/>
<path d="M41.8362 113.114L44.9018 114.031" stroke="white" stroke-opacity="0.3" stroke-width="0.8"/>
<path d="M46.0363 101.574L48.9746 102.841" stroke="white" stroke-opacity="0.3" stroke-width="0.8"/>
<path d="M58.2957 80.3401L60.8625 82.251" stroke="white" stroke-opacity="0.3" stroke-width="0.8"/>
<path d="M66.1893 70.9329L68.5169 73.1289" stroke="white" stroke-opacity="0.3" stroke-width="0.8"/>
<path d="M84.9717 55.1725L86.7302 57.846" stroke="white" stroke-opacity="0.3" stroke-width="0.8"/>
<path d="M95.6067 49.0324L97.0429 51.892" stroke="white" stroke-opacity="0.3" stroke-width="0.8"/>
<path d="M118.647 40.6465L119.385 43.7602" stroke="white" stroke-opacity="0.3" stroke-width="0.8"/>
<path d="M130.741 38.514L131.112 41.6924" stroke="white" stroke-opacity="0.3" stroke-width="0.8"/>
<path d="M145.371 11.8789V12.9629C145.371 13.5456 145.319 14.0371 145.215 14.4375C145.111 14.8379 144.961 15.1602 144.766 15.4043C144.57 15.6484 144.334 15.8258 144.058 15.9365C143.784 16.0439 143.475 16.0977 143.13 16.0977C142.856 16.0977 142.604 16.0635 142.373 15.9951C142.142 15.9268 141.934 15.8177 141.748 15.668C141.566 15.515 141.41 15.3164 141.279 15.0723C141.149 14.8281 141.05 14.5319 140.981 14.1836C140.913 13.8353 140.879 13.4284 140.879 12.9629V11.8789C140.879 11.2962 140.931 10.8079 141.035 10.4141C141.143 10.0202 141.294 9.70443 141.489 9.4668C141.685 9.22591 141.919 9.05339 142.192 8.94922C142.469 8.84505 142.778 8.79297 143.12 8.79297C143.397 8.79297 143.651 8.82715 143.882 8.89551C144.116 8.96061 144.325 9.06641 144.507 9.21289C144.689 9.35612 144.844 9.54818 144.971 9.78906C145.101 10.0267 145.2 10.318 145.269 10.6631C145.337 11.0081 145.371 11.4134 145.371 11.8789ZM144.463 13.1094V11.7275C144.463 11.4085 144.443 11.1286 144.404 10.8877C144.368 10.6436 144.315 10.4352 144.243 10.2627C144.172 10.0902 144.08 9.9502 143.97 9.84277C143.862 9.73535 143.737 9.65723 143.594 9.6084C143.454 9.55632 143.296 9.53027 143.12 9.53027C142.905 9.53027 142.715 9.57096 142.549 9.65234C142.383 9.73047 142.243 9.85579 142.129 10.0283C142.018 10.2008 141.934 10.4271 141.875 10.707C141.816 10.987 141.787 11.3271 141.787 11.7275V13.1094C141.787 13.4284 141.805 13.71 141.841 13.9541C141.88 14.1982 141.937 14.4098 142.012 14.5889C142.087 14.7646 142.178 14.9095 142.285 15.0234C142.393 15.1374 142.516 15.222 142.656 15.2773C142.799 15.3294 142.957 15.3555 143.13 15.3555C143.351 15.3555 143.545 15.3132 143.711 15.2285C143.877 15.1439 144.015 15.012 144.126 14.833C144.24 14.6507 144.325 14.418 144.38 14.1348C144.435 13.8483 144.463 13.5065 144.463 13.1094ZM146.582 10.0576C146.582 9.8265 146.639 9.61491 146.753 9.42285C146.867 9.23079 147.018 9.0778 147.207 8.96387C147.396 8.84668 147.603 8.78809 147.827 8.78809C148.052 8.78809 148.257 8.84668 148.442 8.96387C148.628 9.0778 148.776 9.23079 148.887 9.42285C148.997 9.61491 149.053 9.8265 149.053 10.0576C149.053 10.2887 148.997 10.5003 148.887 10.6924C148.776 10.8812 148.628 11.0326 148.442 11.1465C148.257 11.2572 148.052 11.3125 147.827 11.3125C147.603 11.3125 147.396 11.2572 147.207 11.1465C147.018 11.0326 146.867 10.8812 146.753 10.6924C146.639 10.5003 146.582 10.2887 146.582 10.0576ZM147.188 10.0576C147.188 10.2367 147.249 10.3864 147.373 10.5068C147.5 10.6273 147.651 10.6875 147.827 10.6875C148.003 10.6875 148.149 10.6273 148.267 10.5068C148.387 10.3864 148.447 10.2367 148.447 10.0576C148.447 9.87533 148.387 9.72233 148.267 9.59863C148.149 9.47493 148.003 9.41309 147.827 9.41309C147.651 9.41309 147.5 9.47493 147.373 9.59863C147.249 9.72233 147.188 9.87533 147.188 10.0576Z" fill="white"/>
<path d="M260.4 79.6074V80.3496H255.264V79.8174L258.447 74.8906H259.185L258.394 76.3164L256.289 79.6074H260.4ZM259.409 74.8906V82H258.506V74.8906H259.409ZM262.363 78.6162L261.641 78.4307L261.997 74.8906H265.645V75.7256H262.764L262.549 77.6592C262.679 77.5843 262.843 77.5143 263.042 77.4492C263.244 77.3841 263.475 77.3516 263.735 77.3516C264.064 77.3516 264.359 77.4085 264.619 77.5225C264.88 77.6331 265.101 77.7926 265.283 78.001C265.469 78.2093 265.61 78.46 265.708 78.7529C265.806 79.0459 265.854 79.373 265.854 79.7344C265.854 80.0762 265.807 80.3903 265.713 80.6768C265.622 80.9632 265.483 81.2139 265.298 81.4287C265.112 81.6403 264.878 81.8047 264.595 81.9219C264.315 82.0391 263.984 82.0977 263.604 82.0977C263.317 82.0977 263.045 82.0586 262.788 81.9805C262.534 81.8991 262.306 81.777 262.104 81.6143C261.906 81.4482 261.743 81.2432 261.616 80.999C261.493 80.7516 261.414 80.4619 261.382 80.1299H262.241C262.28 80.3968 262.358 80.6214 262.476 80.8037C262.593 80.986 262.746 81.1243 262.935 81.2188C263.127 81.3099 263.35 81.3555 263.604 81.3555C263.818 81.3555 264.009 81.318 264.175 81.2432C264.341 81.1683 264.481 81.0609 264.595 80.9209C264.709 80.7809 264.795 80.6117 264.854 80.4131C264.915 80.2145 264.946 79.9915 264.946 79.7441C264.946 79.5195 264.915 79.3112 264.854 79.1191C264.792 78.9271 264.699 78.7594 264.575 78.6162C264.455 78.473 264.307 78.3623 264.131 78.2842C263.955 78.2028 263.753 78.1621 263.525 78.1621C263.223 78.1621 262.993 78.2028 262.837 78.2842C262.684 78.3656 262.526 78.4762 262.363 78.6162ZM266.895 76.0576C266.895 75.8265 266.951 75.6149 267.065 75.4229C267.179 75.2308 267.331 75.0778 267.52 74.9639C267.708 74.8467 267.915 74.7881 268.14 74.7881C268.364 74.7881 268.569 74.8467 268.755 74.9639C268.94 75.0778 269.089 75.2308 269.199 75.4229C269.31 75.6149 269.365 75.8265 269.365 76.0576C269.365 76.2887 269.31 76.5003 269.199 76.6924C269.089 76.8812 268.94 77.0326 268.755 77.1465C268.569 77.2572 268.364 77.3125 268.14 77.3125C267.915 77.3125 267.708 77.2572 267.52 77.1465C267.331 77.0326 267.179 76.8812 267.065 76.6924C266.951 76.5003 266.895 76.2887 266.895 76.0576ZM267.5 76.0576C267.5 76.2367 267.562 76.3864 267.686 76.5068C267.812 76.6273 267.964 76.6875 268.14 76.6875C268.315 76.6875 268.462 76.6273 268.579 76.5068C268.7 76.3864 268.76 76.2367 268.76 76.0576C268.76 75.8753 268.7 75.7223 268.579 75.5986C268.462 75.4749 268.315 75.4131 268.14 75.4131C267.964 75.4131 267.812 75.4749 267.686 75.5986C267.562 75.7223 267.5 75.8753 267.5 76.0576Z" fill="white"/>
<path d="M16.9512 78.6064V79.3486H14.5684V78.6064H16.9512ZM25.0225 79.6074V80.3496H19.8857V79.8174L23.0693 74.8906H23.8066L23.0156 76.3164L20.9111 79.6074H25.0225ZM24.0312 74.8906V82H23.1279V74.8906H24.0312ZM26.9854 78.6162L26.2627 78.4307L26.6191 74.8906H30.2666V75.7256H27.3857L27.1709 77.6592C27.3011 77.5843 27.4655 77.5143 27.6641 77.4492C27.8659 77.3841 28.097 77.3516 28.3574 77.3516C28.6862 77.3516 28.9808 77.4085 29.2412 77.5225C29.5016 77.6331 29.723 77.7926 29.9053 78.001C30.0908 78.2093 30.2324 78.46 30.3301 78.7529C30.4277 79.0459 30.4766 79.373 30.4766 79.7344C30.4766 80.0762 30.4294 80.3903 30.335 80.6768C30.2438 80.9632 30.1055 81.2139 29.9199 81.4287C29.7344 81.6403 29.5 81.8047 29.2168 81.9219C28.9368 82.0391 28.6064 82.0977 28.2256 82.0977C27.9391 82.0977 27.6673 82.0586 27.4102 81.9805C27.1562 81.8991 26.9284 81.777 26.7266 81.6143C26.528 81.4482 26.3652 81.2432 26.2383 80.999C26.1146 80.7516 26.0365 80.4619 26.0039 80.1299H26.8633C26.9023 80.3968 26.9805 80.6214 27.0977 80.8037C27.2148 80.986 27.3678 81.1243 27.5566 81.2188C27.7487 81.3099 27.9717 81.3555 28.2256 81.3555C28.4404 81.3555 28.6309 81.318 28.7969 81.2432C28.9629 81.1683 29.1029 81.0609 29.2168 80.9209C29.3307 80.7809 29.417 80.6117 29.4756 80.4131C29.5374 80.2145 29.5684 79.9915 29.5684 79.7441C29.5684 79.5195 29.5374 79.3112 29.4756 79.1191C29.4137 78.9271 29.321 78.7594 29.1973 78.6162C29.0768 78.473 28.9287 78.3623 28.7529 78.2842C28.5771 78.2028 28.3753 78.1621 28.1475 78.1621C27.8447 78.1621 27.6152 78.2028 27.459 78.2842C27.306 78.3656 27.1481 78.4762 26.9854 78.6162ZM31.5166 76.0576C31.5166 75.8265 31.5736 75.6149 31.6875 75.4229C31.8014 75.2308 31.9528 75.0778 32.1416 74.9639C32.3304 74.8467 32.5371 74.7881 32.7617 74.7881C32.9863 74.7881 33.1914 74.8467 33.377 74.9639C33.5625 75.0778 33.7106 75.2308 33.8213 75.4229C33.932 75.6149 33.9873 75.8265 33.9873 76.0576C33.9873 76.2887 33.932 76.5003 33.8213 76.6924C33.7106 76.8812 33.5625 77.0326 33.377 77.1465C33.1914 77.2572 32.9863 77.3125 32.7617 77.3125C32.5371 77.3125 32.3304 77.2572 32.1416 77.1465C31.9528 77.0326 31.8014 76.8812 31.6875 76.6924C31.5736 76.5003 31.5166 76.2887 31.5166 76.0576ZM32.1221 76.0576C32.1221 76.2367 32.1839 76.3864 32.3076 76.5068C32.4346 76.6273 32.5859 76.6875 32.7617 76.6875C32.9375 76.6875 33.084 76.6273 33.2012 76.5068C33.3216 76.3864 33.3818 76.2367 33.3818 76.0576C33.3818 75.8753 33.3216 75.7223 33.2012 75.5986C33.084 75.4749 32.9375 75.4131 32.7617 75.4131C32.5859 75.4131 32.4346 75.4749 32.3076 75.5986C32.1839 75.7223 32.1221 75.8753 32.1221 76.0576Z" fill="white"/>
<path d="M89.6914 19.6064V20.3486H87.3086V19.6064H89.6914ZM93.4463 15.8516V23H92.543V16.9795L90.7217 17.6436V16.8281L93.3047 15.8516H93.4463ZM97.2451 19.6162L96.5225 19.4307L96.8789 15.8906H100.526V16.7256H97.6455L97.4307 18.6592C97.5609 18.5843 97.7253 18.5143 97.9238 18.4492C98.1257 18.3841 98.3568 18.3516 98.6172 18.3516C98.946 18.3516 99.2406 18.4085 99.501 18.5225C99.7614 18.6331 99.9827 18.7926 100.165 19.001C100.351 19.2093 100.492 19.46 100.59 19.7529C100.688 20.0459 100.736 20.373 100.736 20.7344C100.736 21.0762 100.689 21.3903 100.595 21.6768C100.504 21.9632 100.365 22.2139 100.18 22.4287C99.9941 22.6403 99.7598 22.8047 99.4766 22.9219C99.1966 23.0391 98.8662 23.0977 98.4854 23.0977C98.1989 23.0977 97.9271 23.0586 97.6699 22.9805C97.416 22.8991 97.1882 22.777 96.9863 22.6143C96.7878 22.4482 96.625 22.2432 96.498 21.999C96.3743 21.7516 96.2962 21.4619 96.2637 21.1299H97.123C97.1621 21.3968 97.2402 21.6214 97.3574 21.8037C97.4746 21.986 97.6276 22.1243 97.8164 22.2188C98.0085 22.3099 98.2314 22.3555 98.4854 22.3555C98.7002 22.3555 98.8906 22.318 99.0566 22.2432C99.2227 22.1683 99.3626 22.0609 99.4766 21.9209C99.5905 21.7809 99.6768 21.6117 99.7354 21.4131C99.7972 21.2145 99.8281 20.9915 99.8281 20.7441C99.8281 20.5195 99.7972 20.3112 99.7354 20.1191C99.6735 19.9271 99.5807 19.7594 99.457 19.6162C99.3366 19.473 99.1885 19.3623 99.0127 19.2842C98.8369 19.2028 98.6351 19.1621 98.4072 19.1621C98.1045 19.1621 97.875 19.2028 97.7188 19.2842C97.5658 19.3656 97.4079 19.4762 97.2451 19.6162ZM101.776 17.0576C101.776 16.8265 101.833 16.6149 101.947 16.4229C102.061 16.2308 102.213 16.0778 102.401 15.9639C102.59 15.8467 102.797 15.7881 103.021 15.7881C103.246 15.7881 103.451 15.8467 103.637 15.9639C103.822 16.0778 103.97 16.2308 104.081 16.4229C104.192 16.6149 104.247 16.8265 104.247 17.0576C104.247 17.2887 104.192 17.5003 104.081 17.6924C103.97 17.8812 103.822 18.0326 103.637 18.1465C103.451 18.2572 103.246 18.3125 103.021 18.3125C102.797 18.3125 102.59 18.2572 102.401 18.1465C102.213 18.0326 102.061 17.8812 101.947 17.6924C101.833 17.5003 101.776 17.2887 101.776 17.0576ZM102.382 17.0576C102.382 17.2367 102.444 17.3864 102.567 17.5068C102.694 17.6273 102.846 17.6875 103.021 17.6875C103.197 17.6875 103.344 17.6273 103.461 17.5068C103.581 17.3864 103.642 17.2367 103.642 17.0576C103.642 16.8753 103.581 16.7223 103.461 16.5986C103.344 16.4749 103.197 16.4131 103.021 16.4131C102.846 16.4131 102.694 16.4749 102.567 16.5986C102.444 16.7223 102.382 16.8753 102.382 17.0576Z" fill="white"/>
<path d="M49.6914 44.6064V45.3486H47.3086V44.6064H49.6914ZM51.7959 44.001H52.4404C52.7562 44.001 53.0166 43.9489 53.2217 43.8447C53.43 43.7373 53.5846 43.5924 53.6855 43.4102C53.7897 43.2246 53.8418 43.0163 53.8418 42.7852C53.8418 42.5117 53.7962 42.2822 53.7051 42.0967C53.6139 41.9111 53.4772 41.7712 53.2949 41.6768C53.1126 41.5824 52.8815 41.5352 52.6016 41.5352C52.3477 41.5352 52.123 41.5856 51.9277 41.6865C51.7357 41.7842 51.5843 41.9242 51.4736 42.1064C51.3662 42.2887 51.3125 42.5036 51.3125 42.751H50.4092C50.4092 42.3896 50.5003 42.0609 50.6826 41.7646C50.8649 41.4684 51.1204 41.2324 51.4492 41.0566C51.7812 40.8809 52.1654 40.793 52.6016 40.793C53.0312 40.793 53.4072 40.8695 53.7295 41.0225C54.0518 41.1722 54.3024 41.3968 54.4814 41.6963C54.6605 41.9925 54.75 42.362 54.75 42.8047C54.75 42.9837 54.7077 43.1758 54.623 43.3809C54.5417 43.5827 54.4131 43.7715 54.2373 43.9473C54.0648 44.123 53.8402 44.2679 53.5635 44.3818C53.2868 44.4925 52.9548 44.5479 52.5674 44.5479H51.7959V44.001ZM51.7959 44.7432V44.2012H52.5674C53.0199 44.2012 53.3942 44.2549 53.6904 44.3623C53.9867 44.4697 54.2194 44.613 54.3887 44.792C54.5612 44.971 54.6816 45.168 54.75 45.3828C54.8216 45.5944 54.8574 45.806 54.8574 46.0176C54.8574 46.3496 54.8005 46.6442 54.6865 46.9014C54.5758 47.1585 54.418 47.3766 54.2129 47.5557C54.0111 47.7347 53.7734 47.8698 53.5 47.9609C53.2266 48.0521 52.9287 48.0977 52.6064 48.0977C52.2972 48.0977 52.0059 48.0537 51.7324 47.9658C51.4622 47.8779 51.223 47.751 51.0146 47.585C50.8063 47.4157 50.6436 47.209 50.5264 46.9648C50.4092 46.7174 50.3506 46.4359 50.3506 46.1201H51.2539C51.2539 46.3675 51.3076 46.584 51.415 46.7695C51.5257 46.9551 51.682 47.0999 51.8838 47.2041C52.0889 47.305 52.3298 47.3555 52.6064 47.3555C52.8831 47.3555 53.1208 47.3083 53.3193 47.2139C53.5212 47.1162 53.6758 46.9697 53.7832 46.7744C53.8939 46.5791 53.9492 46.3333 53.9492 46.0371C53.9492 45.7409 53.8874 45.4984 53.7637 45.3096C53.64 45.1175 53.4642 44.9759 53.2363 44.8848C53.0117 44.7904 52.7464 44.7432 52.4404 44.7432H51.7959ZM60.5654 43.8789V44.9629C60.5654 45.5456 60.5133 46.0371 60.4092 46.4375C60.305 46.8379 60.1553 47.1602 59.96 47.4043C59.7646 47.6484 59.5286 47.8258 59.252 47.9365C58.9785 48.0439 58.6693 48.0977 58.3242 48.0977C58.0508 48.0977 57.7985 48.0635 57.5674 47.9951C57.3363 47.9268 57.1279 47.8177 56.9424 47.668C56.7601 47.515 56.6038 47.3164 56.4736 47.0723C56.3434 46.8281 56.2441 46.5319 56.1758 46.1836C56.1074 45.8353 56.0732 45.4284 56.0732 44.9629V43.8789C56.0732 43.2962 56.1253 42.8079 56.2295 42.4141C56.3369 42.0202 56.4883 41.7044 56.6836 41.4668C56.8789 41.2259 57.1133 41.0534 57.3867 40.9492C57.6634 40.8451 57.9727 40.793 58.3145 40.793C58.5911 40.793 58.8451 40.8271 59.0762 40.8955C59.3105 40.9606 59.5189 41.0664 59.7012 41.2129C59.8835 41.3561 60.0381 41.5482 60.165 41.7891C60.2952 42.0267 60.3945 42.318 60.4629 42.6631C60.5312 43.0081 60.5654 43.4134 60.5654 43.8789ZM59.6572 45.1094V43.7275C59.6572 43.4085 59.6377 43.1286 59.5986 42.8877C59.5628 42.6436 59.5091 42.4352 59.4375 42.2627C59.3659 42.0902 59.2747 41.9502 59.1641 41.8428C59.0566 41.7354 58.9313 41.6572 58.7881 41.6084C58.6481 41.5563 58.4902 41.5303 58.3145 41.5303C58.0996 41.5303 57.9092 41.571 57.7432 41.6523C57.5771 41.7305 57.4372 41.8558 57.3232 42.0283C57.2126 42.2008 57.1279 42.4271 57.0693 42.707C57.0107 42.987 56.9814 43.3271 56.9814 43.7275V45.1094C56.9814 45.4284 56.9993 45.71 57.0352 45.9541C57.0742 46.1982 57.1312 46.4098 57.2061 46.5889C57.2809 46.7646 57.3721 46.9095 57.4795 47.0234C57.5869 47.1374 57.7106 47.222 57.8506 47.2773C57.9938 47.3294 58.1517 47.3555 58.3242 47.3555C58.5456 47.3555 58.7393 47.3132 58.9053 47.2285C59.0713 47.1439 59.2096 47.012 59.3203 46.833C59.4342 46.6507 59.5189 46.418 59.5742 46.1348C59.6296 45.8483 59.6572 45.5065 59.6572 45.1094ZM61.7764 42.0576C61.7764 41.8265 61.8333 41.6149 61.9473 41.4229C62.0612 41.2308 62.2126 41.0778 62.4014 40.9639C62.5902 40.8467 62.7969 40.7881 63.0215 40.7881C63.2461 40.7881 63.4512 40.8467 63.6367 40.9639C63.8223 41.0778 63.9704 41.2308 64.0811 41.4229C64.1917 41.6149 64.2471 41.8265 64.2471 42.0576C64.2471 42.2887 64.1917 42.5003 64.0811 42.6924C63.9704 42.8812 63.8223 43.0326 63.6367 43.1465C63.4512 43.2572 63.2461 43.3125 63.0215 43.3125C62.7969 43.3125 62.5902 43.2572 62.4014 43.1465C62.2126 43.0326 62.0612 42.8812 61.9473 42.6924C61.8333 42.5003 61.7764 42.2887 61.7764 42.0576ZM62.3818 42.0576C62.3818 42.2367 62.4437 42.3864 62.5674 42.5068C62.6943 42.6273 62.8457 42.6875 63.0215 42.6875C63.1973 42.6875 63.3438 42.6273 63.4609 42.5068C63.5814 42.3864 63.6416 42.2367 63.6416 42.0576C63.6416 41.8753 63.5814 41.7223 63.4609 41.5986C63.3438 41.4749 63.1973 41.4131 63.0215 41.4131C62.8457 41.4131 62.6943 41.4749 62.5674 41.5986C62.4437 41.7223 62.3818 41.8753 62.3818 42.0576Z" fill="white"/>
<path d="M184.564 15.8516V23H183.661V16.9795L181.84 17.6436V16.8281L184.423 15.8516H184.564ZM188.363 19.6162L187.641 19.4307L187.997 15.8906H191.645V16.7256H188.764L188.549 18.6592C188.679 18.5843 188.843 18.5143 189.042 18.4492C189.244 18.3841 189.475 18.3516 189.735 18.3516C190.064 18.3516 190.359 18.4085 190.619 18.5225C190.88 18.6331 191.101 18.7926 191.283 19.001C191.469 19.2093 191.61 19.46 191.708 19.7529C191.806 20.0459 191.854 20.373 191.854 20.7344C191.854 21.0762 191.807 21.3903 191.713 21.6768C191.622 21.9632 191.483 22.2139 191.298 22.4287C191.112 22.6403 190.878 22.8047 190.595 22.9219C190.315 23.0391 189.984 23.0977 189.604 23.0977C189.317 23.0977 189.045 23.0586 188.788 22.9805C188.534 22.8991 188.306 22.777 188.104 22.6143C187.906 22.4482 187.743 22.2432 187.616 21.999C187.493 21.7516 187.414 21.4619 187.382 21.1299H188.241C188.28 21.3968 188.358 21.6214 188.476 21.8037C188.593 21.986 188.746 22.1243 188.935 22.2188C189.127 22.3099 189.35 22.3555 189.604 22.3555C189.818 22.3555 190.009 22.318 190.175 22.2432C190.341 22.1683 190.481 22.0609 190.595 21.9209C190.709 21.7809 190.795 21.6117 190.854 21.4131C190.915 21.2145 190.946 20.9915 190.946 20.7441C190.946 20.5195 190.915 20.3112 190.854 20.1191C190.792 19.9271 190.699 19.7594 190.575 19.6162C190.455 19.473 190.307 19.3623 190.131 19.2842C189.955 19.2028 189.753 19.1621 189.525 19.1621C189.223 19.1621 188.993 19.2028 188.837 19.2842C188.684 19.3656 188.526 19.4762 188.363 19.6162ZM192.895 17.0576C192.895 16.8265 192.951 16.6149 193.065 16.4229C193.179 16.2308 193.331 16.0778 193.52 15.9639C193.708 15.8467 193.915 15.7881 194.14 15.7881C194.364 15.7881 194.569 15.8467 194.755 15.9639C194.94 16.0778 195.089 16.2308 195.199 16.4229C195.31 16.6149 195.365 16.8265 195.365 17.0576C195.365 17.2887 195.31 17.5003 195.199 17.6924C195.089 17.8812 194.94 18.0326 194.755 18.1465C194.569 18.2572 194.364 18.3125 194.14 18.3125C193.915 18.3125 193.708 18.2572 193.52 18.1465C193.331 18.0326 193.179 17.8812 193.065 17.6924C192.951 17.5003 192.895 17.2887 192.895 17.0576ZM193.5 17.0576C193.5 17.2367 193.562 17.3864 193.686 17.5068C193.812 17.6273 193.964 17.6875 194.14 17.6875C194.315 17.6875 194.462 17.6273 194.579 17.5068C194.7 17.3864 194.76 17.2367 194.76 17.0576C194.76 16.8753 194.7 16.7223 194.579 16.5986C194.462 16.4749 194.315 16.4131 194.14 16.4131C193.964 16.4131 193.812 16.4749 193.686 16.5986C193.562 16.7223 193.5 16.8753 193.5 17.0576Z" fill="white"/>
<path d="M224.914 44.001H225.559C225.874 44.001 226.135 43.9489 226.34 43.8447C226.548 43.7373 226.703 43.5924 226.804 43.4102C226.908 43.2246 226.96 43.0163 226.96 42.7852C226.96 42.5117 226.914 42.2822 226.823 42.0967C226.732 41.9111 226.595 41.7712 226.413 41.6768C226.231 41.5824 226 41.5352 225.72 41.5352C225.466 41.5352 225.241 41.5856 225.046 41.6865C224.854 41.7842 224.702 41.9242 224.592 42.1064C224.484 42.2887 224.431 42.5036 224.431 42.751H223.527C223.527 42.3896 223.618 42.0609 223.801 41.7646C223.983 41.4684 224.239 41.2324 224.567 41.0566C224.899 40.8809 225.284 40.793 225.72 40.793C226.149 40.793 226.525 40.8695 226.848 41.0225C227.17 41.1722 227.421 41.3968 227.6 41.6963C227.779 41.9925 227.868 42.362 227.868 42.8047C227.868 42.9837 227.826 43.1758 227.741 43.3809C227.66 43.5827 227.531 43.7715 227.355 43.9473C227.183 44.123 226.958 44.2679 226.682 44.3818C226.405 44.4925 226.073 44.5479 225.686 44.5479H224.914V44.001ZM224.914 44.7432V44.2012H225.686C226.138 44.2012 226.512 44.2549 226.809 44.3623C227.105 44.4697 227.338 44.613 227.507 44.792C227.679 44.971 227.8 45.168 227.868 45.3828C227.94 45.5944 227.976 45.806 227.976 46.0176C227.976 46.3496 227.919 46.6442 227.805 46.9014C227.694 47.1585 227.536 47.3766 227.331 47.5557C227.129 47.7347 226.892 47.8698 226.618 47.9609C226.345 48.0521 226.047 48.0977 225.725 48.0977C225.415 48.0977 225.124 48.0537 224.851 47.9658C224.58 47.8779 224.341 47.751 224.133 47.585C223.924 47.4157 223.762 47.209 223.645 46.9648C223.527 46.7174 223.469 46.4359 223.469 46.1201H224.372C224.372 46.3675 224.426 46.584 224.533 46.7695C224.644 46.9551 224.8 47.0999 225.002 47.2041C225.207 47.305 225.448 47.3555 225.725 47.3555C226.001 47.3555 226.239 47.3083 226.438 47.2139C226.639 47.1162 226.794 46.9697 226.901 46.7744C227.012 46.5791 227.067 46.3333 227.067 46.0371C227.067 45.7409 227.006 45.4984 226.882 45.3096C226.758 45.1175 226.582 44.9759 226.354 44.8848C226.13 44.7904 225.865 44.7432 225.559 44.7432H224.914ZM233.684 43.8789V44.9629C233.684 45.5456 233.632 46.0371 233.527 46.4375C233.423 46.8379 233.273 47.1602 233.078 47.4043C232.883 47.6484 232.647 47.8258 232.37 47.9365C232.097 48.0439 231.787 48.0977 231.442 48.0977C231.169 48.0977 230.917 48.0635 230.686 47.9951C230.454 47.9268 230.246 47.8177 230.061 47.668C229.878 47.515 229.722 47.3164 229.592 47.0723C229.462 46.8281 229.362 46.5319 229.294 46.1836C229.226 45.8353 229.191 45.4284 229.191 44.9629V43.8789C229.191 43.2962 229.243 42.8079 229.348 42.4141C229.455 42.0202 229.606 41.7044 229.802 41.4668C229.997 41.2259 230.231 41.0534 230.505 40.9492C230.782 40.8451 231.091 40.793 231.433 40.793C231.709 40.793 231.963 40.8271 232.194 40.8955C232.429 40.9606 232.637 41.0664 232.819 41.2129C233.002 41.3561 233.156 41.5482 233.283 41.7891C233.413 42.0267 233.513 42.318 233.581 42.6631C233.649 43.0081 233.684 43.4134 233.684 43.8789ZM232.775 45.1094V43.7275C232.775 43.4085 232.756 43.1286 232.717 42.8877C232.681 42.6436 232.627 42.4352 232.556 42.2627C232.484 42.0902 232.393 41.9502 232.282 41.8428C232.175 41.7354 232.049 41.6572 231.906 41.6084C231.766 41.5563 231.608 41.5303 231.433 41.5303C231.218 41.5303 231.027 41.571 230.861 41.6523C230.695 41.7305 230.555 41.8558 230.441 42.0283C230.331 42.2008 230.246 42.4271 230.188 42.707C230.129 42.987 230.1 43.3271 230.1 43.7275V45.1094C230.1 45.4284 230.118 45.71 230.153 45.9541C230.192 46.1982 230.249 46.4098 230.324 46.5889C230.399 46.7646 230.49 46.9095 230.598 47.0234C230.705 47.1374 230.829 47.222 230.969 47.2773C231.112 47.3294 231.27 47.3555 231.442 47.3555C231.664 47.3555 231.857 47.3132 232.023 47.2285C232.189 47.1439 232.328 47.012 232.438 46.833C232.552 46.6507 232.637 46.418 232.692 46.1348C232.748 45.8483 232.775 45.5065 232.775 45.1094ZM234.895 42.0576C234.895 41.8265 234.951 41.6149 235.065 41.4229C235.179 41.2308 235.331 41.0778 235.52 40.9639C235.708 40.8467 235.915 40.7881 236.14 40.7881C236.364 40.7881 236.569 40.8467 236.755 40.9639C236.94 41.0778 237.089 41.2308 237.199 41.4229C237.31 41.6149 237.365 41.8265 237.365 42.0576C237.365 42.2887 237.31 42.5003 237.199 42.6924C237.089 42.8812 236.94 43.0326 236.755 43.1465C236.569 43.2572 236.364 43.3125 236.14 43.3125C235.915 43.3125 235.708 43.2572 235.52 43.1465C235.331 43.0326 235.179 42.8812 235.065 42.6924C234.951 42.5003 234.895 42.2887 234.895 42.0576ZM235.5 42.0576C235.5 42.2367 235.562 42.3864 235.686 42.5068C235.812 42.6273 235.964 42.6875 236.14 42.6875C236.315 42.6875 236.462 42.6273 236.579 42.5068C236.7 42.3864 236.76 42.2367 236.76 42.0576C236.76 41.8753 236.7 41.7223 236.579 41.5986C236.462 41.4749 236.315 41.4131 236.14 41.4131C235.964 41.4131 235.812 41.4749 235.686 41.5986C235.562 41.7223 235.5 41.8753 235.5 42.0576Z" fill="white"/>
<path d="M3.69141 120.606V121.349H1.30859V120.606H3.69141ZM7.94434 116.881H8.02246V117.647H7.94434C7.46582 117.647 7.06543 117.726 6.74316 117.882C6.4209 118.035 6.16536 118.242 5.97656 118.502C5.78776 118.759 5.65104 119.049 5.56641 119.371C5.48503 119.693 5.44434 120.021 5.44434 120.353V121.397C5.44434 121.713 5.48177 121.993 5.55664 122.237C5.63151 122.478 5.73405 122.682 5.86426 122.848C5.99447 123.014 6.14095 123.139 6.30371 123.224C6.46973 123.308 6.64225 123.351 6.82129 123.351C7.02962 123.351 7.21517 123.312 7.37793 123.233C7.54069 123.152 7.67741 123.04 7.78809 122.896C7.90202 122.75 7.98828 122.577 8.04688 122.379C8.10547 122.18 8.13477 121.962 8.13477 121.725C8.13477 121.513 8.10872 121.31 8.05664 121.114C8.00456 120.916 7.9248 120.74 7.81738 120.587C7.70996 120.431 7.57487 120.309 7.41211 120.221C7.2526 120.13 7.06217 120.084 6.84082 120.084C6.59017 120.084 6.35579 120.146 6.1377 120.27C5.92285 120.39 5.74544 120.549 5.60547 120.748C5.46875 120.943 5.39062 121.157 5.37109 121.388L4.89258 121.383C4.93815 121.018 5.02279 120.707 5.14648 120.45C5.27344 120.19 5.42969 119.978 5.61523 119.815C5.80404 119.649 6.014 119.529 6.24512 119.454C6.47949 119.376 6.72689 119.337 6.9873 119.337C7.34212 119.337 7.64811 119.404 7.90527 119.537C8.16243 119.671 8.37402 119.85 8.54004 120.074C8.70605 120.296 8.82812 120.546 8.90625 120.826C8.98763 121.103 9.02832 121.388 9.02832 121.681C9.02832 122.016 8.98112 122.33 8.88672 122.623C8.79232 122.916 8.65072 123.173 8.46191 123.395C8.27637 123.616 8.04688 123.788 7.77344 123.912C7.5 124.036 7.18262 124.098 6.82129 124.098C6.43717 124.098 6.10189 124.02 5.81543 123.863C5.52897 123.704 5.29134 123.492 5.10254 123.229C4.91374 122.965 4.77214 122.672 4.67773 122.35C4.58333 122.027 4.53613 121.7 4.53613 121.368V120.943C4.53613 120.442 4.58659 119.951 4.6875 119.469C4.78841 118.987 4.96257 118.551 5.20996 118.16C5.46061 117.77 5.80729 117.459 6.25 117.228C6.69271 116.996 7.25749 116.881 7.94434 116.881ZM14.5654 119.879V120.963C14.5654 121.546 14.5133 122.037 14.4092 122.438C14.305 122.838 14.1553 123.16 13.96 123.404C13.7646 123.648 13.5286 123.826 13.252 123.937C12.9785 124.044 12.6693 124.098 12.3242 124.098C12.0508 124.098 11.7985 124.063 11.5674 123.995C11.3363 123.927 11.1279 123.818 10.9424 123.668C10.7601 123.515 10.6038 123.316 10.4736 123.072C10.3434 122.828 10.2441 122.532 10.1758 122.184C10.1074 121.835 10.0732 121.428 10.0732 120.963V119.879C10.0732 119.296 10.1253 118.808 10.2295 118.414C10.3369 118.02 10.4883 117.704 10.6836 117.467C10.8789 117.226 11.1133 117.053 11.3867 116.949C11.6634 116.845 11.9727 116.793 12.3145 116.793C12.5911 116.793 12.8451 116.827 13.0762 116.896C13.3105 116.961 13.5189 117.066 13.7012 117.213C13.8835 117.356 14.0381 117.548 14.165 117.789C14.2952 118.027 14.3945 118.318 14.4629 118.663C14.5312 119.008 14.5654 119.413 14.5654 119.879ZM13.6572 121.109V119.728C13.6572 119.409 13.6377 119.129 13.5986 118.888C13.5628 118.644 13.5091 118.435 13.4375 118.263C13.3659 118.09 13.2747 117.95 13.1641 117.843C13.0566 117.735 12.9313 117.657 12.7881 117.608C12.6481 117.556 12.4902 117.53 12.3145 117.53C12.0996 117.53 11.9092 117.571 11.7432 117.652C11.5771 117.73 11.4372 117.856 11.3232 118.028C11.2126 118.201 11.1279 118.427 11.0693 118.707C11.0107 118.987 10.9814 119.327 10.9814 119.728V121.109C10.9814 121.428 10.9993 121.71 11.0352 121.954C11.0742 122.198 11.1312 122.41 11.2061 122.589C11.2809 122.765 11.3721 122.91 11.4795 123.023C11.5869 123.137 11.7106 123.222 11.8506 123.277C11.9938 123.329 12.1517 123.355 12.3242 123.355C12.5456 123.355 12.7393 123.313 12.9053 123.229C13.0713 123.144 13.2096 123.012 13.3203 122.833C13.4342 122.651 13.5189 122.418 13.5742 122.135C13.6296 121.848 13.6572 121.507 13.6572 121.109ZM15.7764 118.058C15.7764 117.826 15.8333 117.615 15.9473 117.423C16.0612 117.231 16.2126 117.078 16.4014 116.964C16.5902 116.847 16.7969 116.788 17.0215 116.788C17.2461 116.788 17.4512 116.847 17.6367 116.964C17.8223 117.078 17.9704 117.231 18.0811 117.423C18.1917 117.615 18.2471 117.826 18.2471 118.058C18.2471 118.289 18.1917 118.5 18.0811 118.692C17.9704 118.881 17.8223 119.033 17.6367 119.146C17.4512 119.257 17.2461 119.312 17.0215 119.312C16.7969 119.312 16.5902 119.257 16.4014 119.146C16.2126 119.033 16.0612 118.881 15.9473 118.692C15.8333 118.5 15.7764 118.289 15.7764 118.058ZM16.3818 118.058C16.3818 118.237 16.4437 118.386 16.5674 118.507C16.6943 118.627 16.8457 118.688 17.0215 118.688C17.1973 118.688 17.3438 118.627 17.4609 118.507C17.5814 118.386 17.6416 118.237 17.6416 118.058C17.6416 117.875 17.5814 117.722 17.4609 117.599C17.3438 117.475 17.1973 117.413 17.0215 117.413C16.8457 117.413 16.6943 117.475 16.5674 117.599C16.4437 117.722 16.3818 117.875 16.3818 118.058Z" fill="white"/>
<path d="M271.062 116.881H271.141V117.647H271.062C270.584 117.647 270.184 117.726 269.861 117.882C269.539 118.035 269.284 118.242 269.095 118.502C268.906 118.759 268.769 119.049 268.685 119.371C268.603 119.693 268.562 120.021 268.562 120.353V121.397C268.562 121.713 268.6 121.993 268.675 122.237C268.75 122.478 268.852 122.682 268.982 122.848C269.113 123.014 269.259 123.139 269.422 123.224C269.588 123.308 269.76 123.351 269.939 123.351C270.148 123.351 270.333 123.312 270.496 123.233C270.659 123.152 270.796 123.04 270.906 122.896C271.02 122.75 271.106 122.577 271.165 122.379C271.224 122.18 271.253 121.962 271.253 121.725C271.253 121.513 271.227 121.31 271.175 121.114C271.123 120.916 271.043 120.74 270.936 120.587C270.828 120.431 270.693 120.309 270.53 120.221C270.371 120.13 270.18 120.084 269.959 120.084C269.708 120.084 269.474 120.146 269.256 120.27C269.041 120.39 268.864 120.549 268.724 120.748C268.587 120.943 268.509 121.157 268.489 121.388L268.011 121.383C268.056 121.018 268.141 120.707 268.265 120.45C268.392 120.19 268.548 119.978 268.733 119.815C268.922 119.649 269.132 119.529 269.363 119.454C269.598 119.376 269.845 119.337 270.105 119.337C270.46 119.337 270.766 119.404 271.023 119.537C271.281 119.671 271.492 119.85 271.658 120.074C271.824 120.296 271.946 120.546 272.024 120.826C272.106 121.103 272.146 121.388 272.146 121.681C272.146 122.016 272.099 122.33 272.005 122.623C271.91 122.916 271.769 123.173 271.58 123.395C271.395 123.616 271.165 123.788 270.892 123.912C270.618 124.036 270.301 124.098 269.939 124.098C269.555 124.098 269.22 124.02 268.934 123.863C268.647 123.704 268.41 123.492 268.221 123.229C268.032 122.965 267.89 122.672 267.796 122.35C267.701 122.027 267.654 121.7 267.654 121.368V120.943C267.654 120.442 267.705 119.951 267.806 119.469C267.907 118.987 268.081 118.551 268.328 118.16C268.579 117.77 268.925 117.459 269.368 117.228C269.811 116.996 270.376 116.881 271.062 116.881ZM277.684 119.879V120.963C277.684 121.546 277.632 122.037 277.527 122.438C277.423 122.838 277.273 123.16 277.078 123.404C276.883 123.648 276.647 123.826 276.37 123.937C276.097 124.044 275.787 124.098 275.442 124.098C275.169 124.098 274.917 124.063 274.686 123.995C274.454 123.927 274.246 123.818 274.061 123.668C273.878 123.515 273.722 123.316 273.592 123.072C273.462 122.828 273.362 122.532 273.294 122.184C273.226 121.835 273.191 121.428 273.191 120.963V119.879C273.191 119.296 273.243 118.808 273.348 118.414C273.455 118.02 273.606 117.704 273.802 117.467C273.997 117.226 274.231 117.053 274.505 116.949C274.782 116.845 275.091 116.793 275.433 116.793C275.709 116.793 275.963 116.827 276.194 116.896C276.429 116.961 276.637 117.066 276.819 117.213C277.002 117.356 277.156 117.548 277.283 117.789C277.413 118.027 277.513 118.318 277.581 118.663C277.649 119.008 277.684 119.413 277.684 119.879ZM276.775 121.109V119.728C276.775 119.409 276.756 119.129 276.717 118.888C276.681 118.644 276.627 118.435 276.556 118.263C276.484 118.09 276.393 117.95 276.282 117.843C276.175 117.735 276.049 117.657 275.906 117.608C275.766 117.556 275.608 117.53 275.433 117.53C275.218 117.53 275.027 117.571 274.861 117.652C274.695 117.73 274.555 117.856 274.441 118.028C274.331 118.201 274.246 118.427 274.188 118.707C274.129 118.987 274.1 119.327 274.1 119.728V121.109C274.1 121.428 274.118 121.71 274.153 121.954C274.192 122.198 274.249 122.41 274.324 122.589C274.399 122.765 274.49 122.91 274.598 123.023C274.705 123.137 274.829 123.222 274.969 123.277C275.112 123.329 275.27 123.355 275.442 123.355C275.664 123.355 275.857 123.313 276.023 123.229C276.189 123.144 276.328 123.012 276.438 122.833C276.552 122.651 276.637 122.418 276.692 122.135C276.748 121.848 276.775 121.507 276.775 121.109ZM278.895 118.058C278.895 117.826 278.951 117.615 279.065 117.423C279.179 117.231 279.331 117.078 279.52 116.964C279.708 116.847 279.915 116.788 280.14 116.788C280.364 116.788 280.569 116.847 280.755 116.964C280.94 117.078 281.089 117.231 281.199 117.423C281.31 117.615 281.365 117.826 281.365 118.058C281.365 118.289 281.31 118.5 281.199 118.692C281.089 118.881 280.94 119.033 280.755 119.146C280.569 119.257 280.364 119.312 280.14 119.312C279.915 119.312 279.708 119.257 279.52 119.146C279.331 119.033 279.179 118.881 279.065 118.692C278.951 118.5 278.895 118.289 278.895 118.058ZM279.5 118.058C279.5 118.237 279.562 118.386 279.686 118.507C279.812 118.627 279.964 118.688 280.14 118.688C280.315 118.688 280.462 118.627 280.579 118.507C280.7 118.386 280.76 118.237 280.76 118.058C280.76 117.875 280.7 117.722 280.579 117.599C280.462 117.475 280.315 117.413 280.14 117.413C279.964 117.413 279.812 117.475 279.686 117.599C279.562 117.722 279.5 117.875 279.5 118.058Z" fill="white"/>
<path d="M5.69141 165.606V166.349H3.30859V165.606H5.69141ZM11.0723 161.891V162.398L8.12793 169H7.17578L10.1152 162.633H6.26758V161.891H11.0723ZM13.2451 165.616L12.5225 165.431L12.8789 161.891H16.5264V162.726H13.6455L13.4307 164.659C13.5609 164.584 13.7253 164.514 13.9238 164.449C14.1257 164.384 14.3568 164.352 14.6172 164.352C14.946 164.352 15.2406 164.409 15.501 164.522C15.7614 164.633 15.9827 164.793 16.165 165.001C16.3506 165.209 16.4922 165.46 16.5898 165.753C16.6875 166.046 16.7363 166.373 16.7363 166.734C16.7363 167.076 16.6891 167.39 16.5947 167.677C16.5036 167.963 16.3652 168.214 16.1797 168.429C15.9941 168.64 15.7598 168.805 15.4766 168.922C15.1966 169.039 14.8662 169.098 14.4854 169.098C14.1989 169.098 13.9271 169.059 13.6699 168.98C13.416 168.899 13.1882 168.777 12.9863 168.614C12.7878 168.448 12.625 168.243 12.498 167.999C12.3743 167.752 12.2962 167.462 12.2637 167.13H13.123C13.1621 167.397 13.2402 167.621 13.3574 167.804C13.4746 167.986 13.6276 168.124 13.8164 168.219C14.0085 168.31 14.2314 168.355 14.4854 168.355C14.7002 168.355 14.8906 168.318 15.0566 168.243C15.2227 168.168 15.3626 168.061 15.4766 167.921C15.5905 167.781 15.6768 167.612 15.7354 167.413C15.7972 167.215 15.8281 166.992 15.8281 166.744C15.8281 166.52 15.7972 166.311 15.7354 166.119C15.6735 165.927 15.5807 165.759 15.457 165.616C15.3366 165.473 15.1885 165.362 15.0127 165.284C14.8369 165.203 14.6351 165.162 14.4072 165.162C14.1045 165.162 13.875 165.203 13.7188 165.284C13.5658 165.366 13.4079 165.476 13.2451 165.616ZM17.7764 163.058C17.7764 162.826 17.8333 162.615 17.9473 162.423C18.0612 162.231 18.2126 162.078 18.4014 161.964C18.5902 161.847 18.7969 161.788 19.0215 161.788C19.2461 161.788 19.4512 161.847 19.6367 161.964C19.8223 162.078 19.9704 162.231 20.0811 162.423C20.1917 162.615 20.2471 162.826 20.2471 163.058C20.2471 163.289 20.1917 163.5 20.0811 163.692C19.9704 163.881 19.8223 164.033 19.6367 164.146C19.4512 164.257 19.2461 164.312 19.0215 164.312C18.7969 164.312 18.5902 164.257 18.4014 164.146C18.2126 164.033 18.0612 163.881 17.9473 163.692C17.8333 163.5 17.7764 163.289 17.7764 163.058ZM18.3818 163.058C18.3818 163.237 18.4437 163.386 18.5674 163.507C18.6943 163.627 18.8457 163.688 19.0215 163.688C19.1973 163.688 19.3438 163.627 19.4609 163.507C19.5814 163.386 19.6416 163.237 19.6416 163.058C19.6416 162.875 19.5814 162.722 19.4609 162.599C19.3438 162.475 19.1973 162.413 19.0215 162.413C18.8457 162.413 18.6943 162.475 18.5674 162.599C18.4437 162.722 18.3818 162.875 18.3818 163.058Z" fill="white"/>
<path d="M272.19 161.891V162.398L269.246 169H268.294L271.233 162.633H267.386V161.891H272.19ZM274.363 165.616L273.641 165.431L273.997 161.891H277.645V162.726H274.764L274.549 164.659C274.679 164.584 274.843 164.514 275.042 164.449C275.244 164.384 275.475 164.352 275.735 164.352C276.064 164.352 276.359 164.409 276.619 164.522C276.88 164.633 277.101 164.793 277.283 165.001C277.469 165.209 277.61 165.46 277.708 165.753C277.806 166.046 277.854 166.373 277.854 166.734C277.854 167.076 277.807 167.39 277.713 167.677C277.622 167.963 277.483 168.214 277.298 168.429C277.112 168.64 276.878 168.805 276.595 168.922C276.315 169.039 275.984 169.098 275.604 169.098C275.317 169.098 275.045 169.059 274.788 168.98C274.534 168.899 274.306 168.777 274.104 168.614C273.906 168.448 273.743 168.243 273.616 167.999C273.493 167.752 273.414 167.462 273.382 167.13H274.241C274.28 167.397 274.358 167.621 274.476 167.804C274.593 167.986 274.746 168.124 274.935 168.219C275.127 168.31 275.35 168.355 275.604 168.355C275.818 168.355 276.009 168.318 276.175 168.243C276.341 168.168 276.481 168.061 276.595 167.921C276.709 167.781 276.795 167.612 276.854 167.413C276.915 167.215 276.946 166.992 276.946 166.744C276.946 166.52 276.915 166.311 276.854 166.119C276.792 165.927 276.699 165.759 276.575 165.616C276.455 165.473 276.307 165.362 276.131 165.284C275.955 165.203 275.753 165.162 275.525 165.162C275.223 165.162 274.993 165.203 274.837 165.284C274.684 165.366 274.526 165.476 274.363 165.616ZM278.895 163.058C278.895 162.826 278.951 162.615 279.065 162.423C279.179 162.231 279.331 162.078 279.52 161.964C279.708 161.847 279.915 161.788 280.14 161.788C280.364 161.788 280.569 161.847 280.755 161.964C280.94 162.078 281.089 162.231 281.199 162.423C281.31 162.615 281.365 162.826 281.365 163.058C281.365 163.289 281.31 163.5 281.199 163.692C281.089 163.881 280.94 164.033 280.755 164.146C280.569 164.257 280.364 164.312 280.14 164.312C279.915 164.312 279.708 164.257 279.52 164.146C279.331 164.033 279.179 163.881 279.065 163.692C278.951 163.5 278.895 163.289 278.895 163.058ZM279.5 163.058C279.5 163.237 279.562 163.386 279.686 163.507C279.812 163.627 279.964 163.688 280.14 163.688C280.315 163.688 280.462 163.627 280.579 163.507C280.7 163.386 280.76 163.237 280.76 163.058C280.76 162.875 280.7 162.722 280.579 162.599C280.462 162.475 280.315 162.413 280.14 162.413C279.964 162.413 279.812 162.475 279.686 162.599C279.562 162.722 279.5 162.875 279.5 163.058Z" fill="white"/>
<path d="M254.894 210.243H254.987C255.508 210.243 255.931 210.17 256.256 210.023C256.582 209.877 256.833 209.68 257.008 209.433C257.184 209.185 257.305 208.907 257.37 208.598C257.435 208.285 257.467 207.965 257.467 207.636V206.547C257.467 206.225 257.43 205.938 257.355 205.688C257.283 205.437 257.183 205.227 257.052 205.058C256.925 204.888 256.781 204.76 256.618 204.672C256.455 204.584 256.282 204.54 256.1 204.54C255.892 204.54 255.705 204.582 255.539 204.667C255.376 204.748 255.238 204.864 255.124 205.014C255.013 205.163 254.928 205.339 254.87 205.541C254.811 205.743 254.782 205.963 254.782 206.2C254.782 206.412 254.808 206.617 254.86 206.815C254.912 207.014 254.992 207.193 255.099 207.353C255.207 207.512 255.34 207.639 255.5 207.733C255.662 207.825 255.853 207.87 256.071 207.87C256.273 207.87 256.462 207.831 256.637 207.753C256.816 207.672 256.974 207.563 257.111 207.426C257.251 207.286 257.362 207.128 257.443 206.952C257.528 206.776 257.576 206.592 257.589 206.4H258.019C258.019 206.671 257.965 206.938 257.858 207.201C257.754 207.462 257.607 207.699 257.419 207.914C257.23 208.129 257.008 208.301 256.754 208.432C256.501 208.559 256.224 208.622 255.924 208.622C255.573 208.622 255.268 208.554 255.011 208.417C254.754 208.28 254.543 208.098 254.377 207.87C254.214 207.642 254.092 207.388 254.01 207.108C253.932 206.825 253.893 206.539 253.893 206.249C253.893 205.91 253.94 205.593 254.035 205.297C254.129 205.001 254.269 204.74 254.455 204.516C254.64 204.288 254.87 204.11 255.143 203.983C255.42 203.856 255.739 203.793 256.1 203.793C256.507 203.793 256.854 203.874 257.14 204.037C257.427 204.2 257.659 204.418 257.838 204.691C258.021 204.965 258.154 205.272 258.239 205.614C258.323 205.956 258.366 206.308 258.366 206.669V206.996C258.366 207.364 258.341 207.738 258.293 208.119C258.247 208.497 258.157 208.858 258.024 209.203C257.894 209.548 257.703 209.857 257.453 210.131C257.202 210.401 256.875 210.616 256.471 210.775C256.071 210.932 255.576 211.01 254.987 211.01H254.894V210.243ZM264.084 206.879V207.963C264.084 208.546 264.032 209.037 263.927 209.438C263.823 209.838 263.673 210.16 263.478 210.404C263.283 210.648 263.047 210.826 262.77 210.937C262.497 211.044 262.187 211.098 261.842 211.098C261.569 211.098 261.317 211.063 261.086 210.995C260.854 210.927 260.646 210.818 260.461 210.668C260.278 210.515 260.122 210.316 259.992 210.072C259.862 209.828 259.762 209.532 259.694 209.184C259.626 208.835 259.591 208.428 259.591 207.963V206.879C259.591 206.296 259.643 205.808 259.748 205.414C259.855 205.02 260.006 204.704 260.202 204.467C260.397 204.226 260.631 204.053 260.905 203.949C261.182 203.845 261.491 203.793 261.833 203.793C262.109 203.793 262.363 203.827 262.594 203.896C262.829 203.961 263.037 204.066 263.219 204.213C263.402 204.356 263.556 204.548 263.683 204.789C263.813 205.027 263.913 205.318 263.981 205.663C264.049 206.008 264.084 206.413 264.084 206.879ZM263.175 208.109V206.728C263.175 206.409 263.156 206.129 263.117 205.888C263.081 205.644 263.027 205.435 262.956 205.263C262.884 205.09 262.793 204.95 262.682 204.843C262.575 204.735 262.449 204.657 262.306 204.608C262.166 204.556 262.008 204.53 261.833 204.53C261.618 204.53 261.427 204.571 261.261 204.652C261.095 204.73 260.955 204.856 260.841 205.028C260.731 205.201 260.646 205.427 260.587 205.707C260.529 205.987 260.5 206.327 260.5 206.728V208.109C260.5 208.428 260.518 208.71 260.553 208.954C260.592 209.198 260.649 209.41 260.724 209.589C260.799 209.765 260.89 209.91 260.998 210.023C261.105 210.137 261.229 210.222 261.369 210.277C261.512 210.329 261.67 210.355 261.842 210.355C262.064 210.355 262.257 210.313 262.423 210.229C262.589 210.144 262.728 210.012 262.838 209.833C262.952 209.651 263.037 209.418 263.092 209.135C263.148 208.848 263.175 208.507 263.175 208.109ZM265.295 205.058C265.295 204.827 265.351 204.615 265.465 204.423C265.579 204.231 265.731 204.078 265.92 203.964C266.108 203.847 266.315 203.788 266.54 203.788C266.764 203.788 266.969 203.847 267.155 203.964C267.34 204.078 267.489 204.231 267.599 204.423C267.71 204.615 267.765 204.827 267.765 205.058C267.765 205.289 267.71 205.5 267.599 205.692C267.489 205.881 267.34 206.033 267.155 206.146C266.969 206.257 266.764 206.313 266.54 206.313C266.315 206.313 266.108 206.257 265.92 206.146C265.731 206.033 265.579 205.881 265.465 205.692C265.351 205.5 265.295 205.289 265.295 205.058ZM265.9 205.058C265.9 205.237 265.962 205.386 266.086 205.507C266.212 205.627 266.364 205.688 266.54 205.688C266.715 205.688 266.862 205.627 266.979 205.507C267.1 205.386 267.16 205.237 267.16 205.058C267.16 204.875 267.1 204.722 266.979 204.599C266.862 204.475 266.715 204.413 266.54 204.413C266.364 204.413 266.212 204.475 266.086 204.599C265.962 204.722 265.9 204.875 265.9 205.058Z" fill="white"/>
<path d="M17.5511 207.606V208.349H15.1683V207.606H17.5511ZM21.7162 210.243H21.809C22.3298 210.243 22.753 210.17 23.0785 210.023C23.404 209.877 23.6547 209.68 23.8304 209.433C24.0062 209.185 24.1267 208.907 24.1918 208.598C24.2569 208.285 24.2894 207.965 24.2894 207.636V206.547C24.2894 206.225 24.252 205.938 24.1771 205.688C24.1055 205.437 24.0046 205.227 23.8744 205.058C23.7474 204.888 23.6026 204.76 23.4398 204.672C23.2771 204.584 23.1045 204.54 22.9222 204.54C22.7139 204.54 22.5267 204.582 22.3607 204.667C22.198 204.748 22.0596 204.864 21.9457 205.014C21.835 205.163 21.7504 205.339 21.6918 205.541C21.6332 205.743 21.6039 205.963 21.6039 206.2C21.6039 206.412 21.6299 206.617 21.682 206.815C21.7341 207.014 21.8138 207.193 21.9213 207.353C22.0287 207.512 22.1622 207.639 22.3217 207.733C22.4844 207.825 22.6748 207.87 22.8929 207.87C23.0948 207.87 23.2836 207.831 23.4594 207.753C23.6384 207.672 23.7963 207.562 23.933 207.426C24.073 207.286 24.1836 207.128 24.265 206.952C24.3497 206.776 24.3985 206.592 24.4115 206.4H24.8412C24.8412 206.671 24.7875 206.938 24.6801 207.201C24.5759 207.462 24.4294 207.699 24.2406 207.914C24.0518 208.129 23.8304 208.301 23.5765 208.432C23.3226 208.559 23.0459 208.622 22.7465 208.622C22.3949 208.622 22.0905 208.554 21.8334 208.417C21.5762 208.28 21.3646 208.098 21.1986 207.87C21.0358 207.642 20.9138 207.388 20.8324 207.108C20.7543 206.825 20.7152 206.539 20.7152 206.249C20.7152 205.91 20.7624 205.593 20.8568 205.297C20.9512 205.001 21.0912 204.74 21.2767 204.516C21.4623 204.288 21.6918 204.11 21.9652 203.983C22.2419 203.856 22.5609 203.793 22.9222 203.793C23.3291 203.793 23.6758 203.874 23.9623 204.037C24.2487 204.2 24.4815 204.418 24.6605 204.691C24.8428 204.965 24.9763 205.272 25.0609 205.614C25.1455 205.956 25.1879 206.308 25.1879 206.669V206.996C25.1879 207.364 25.1635 207.738 25.1146 208.119C25.0691 208.497 24.9795 208.858 24.8461 209.203C24.7159 209.548 24.5254 209.857 24.2748 210.131C24.0241 210.401 23.697 210.616 23.2933 210.775C22.8929 210.932 22.3982 211.01 21.809 211.01H21.7162V210.243ZM30.9056 206.879V207.963C30.9056 208.546 30.8536 209.037 30.7494 209.438C30.6452 209.838 30.4955 210.16 30.3002 210.404C30.1049 210.648 29.8689 210.826 29.5922 210.937C29.3187 211.044 29.0095 211.098 28.6644 211.098C28.391 211.098 28.1387 211.063 27.9076 210.995C27.6765 210.927 27.4681 210.818 27.2826 210.668C27.1003 210.515 26.9441 210.316 26.8138 210.072C26.6836 209.828 26.5844 209.532 26.516 209.184C26.4476 208.835 26.4135 208.428 26.4135 207.963V206.879C26.4135 206.296 26.4655 205.808 26.5697 205.414C26.6771 205.02 26.8285 204.704 27.0238 204.467C27.2191 204.226 27.4535 204.053 27.7269 203.949C28.0036 203.845 28.3129 203.793 28.6547 203.793C28.9314 203.793 29.1853 203.827 29.4164 203.896C29.6508 203.961 29.8591 204.066 30.0414 204.213C30.2237 204.356 30.3783 204.548 30.5052 204.789C30.6355 205.027 30.7347 205.318 30.8031 205.663C30.8715 206.008 30.9056 206.413 30.9056 206.879ZM29.9974 208.109V206.728C29.9974 206.409 29.9779 206.129 29.9388 205.888C29.903 205.644 29.8493 205.435 29.7777 205.263C29.7061 205.09 29.6149 204.95 29.5043 204.843C29.3969 204.735 29.2715 204.657 29.1283 204.608C28.9883 204.556 28.8304 204.53 28.6547 204.53C28.4398 204.53 28.2494 204.571 28.0834 204.652C27.9174 204.73 27.7774 204.856 27.6635 205.028C27.5528 205.201 27.4681 205.427 27.4095 205.707C27.351 205.987 27.3217 206.327 27.3217 206.728V208.109C27.3217 208.428 27.3396 208.71 27.3754 208.954C27.4144 209.198 27.4714 209.41 27.5463 209.589C27.6211 209.765 27.7123 209.91 27.8197 210.023C27.9271 210.137 28.0508 210.222 28.1908 210.277C28.334 210.329 28.4919 210.355 28.6644 210.355C28.8858 210.355 29.0795 210.313 29.2455 210.229C29.4115 210.144 29.5498 210.012 29.6605 209.833C29.7745 209.651 29.8591 209.418 29.9144 209.135C29.9698 208.848 29.9974 208.507 29.9974 208.109ZM32.1166 205.058C32.1166 204.826 32.1735 204.615 32.2875 204.423C32.4014 204.231 32.5528 204.078 32.7416 203.964C32.9304 203.847 33.1371 203.788 33.3617 203.788C33.5863 203.788 33.7914 203.847 33.9769 203.964C34.1625 204.078 34.3106 204.231 34.4213 204.423C34.5319 204.615 34.5873 204.826 34.5873 205.058C34.5873 205.289 34.5319 205.5 34.4213 205.692C34.3106 205.881 34.1625 206.033 33.9769 206.146C33.7914 206.257 33.5863 206.312 33.3617 206.312C33.1371 206.312 32.9304 206.257 32.7416 206.146C32.5528 206.033 32.4014 205.881 32.2875 205.692C32.1735 205.5 32.1166 205.289 32.1166 205.058ZM32.722 205.058C32.722 205.237 32.7839 205.386 32.9076 205.507C33.0345 205.627 33.1859 205.688 33.3617 205.688C33.5375 205.688 33.684 205.627 33.8011 205.507C33.9216 205.386 33.9818 205.237 33.9818 205.058C33.9818 204.875 33.9216 204.722 33.8011 204.599C33.684 204.475 33.5375 204.413 33.3617 204.413C33.1859 204.413 33.0345 204.475 32.9076 204.599C32.7839 204.722 32.722 204.875 32.722 205.058Z" fill="white"/>
<defs>
<filter id="filter0_ii_2920_42879" x="21.9999" y="22" width="244" height="192.364" filterUnits="userSpaceOnUse" color-interpolation-filters="sRGB">
<feFlood flood-opacity="0" result="BackgroundImageFix"/>
<feBlend mode="normal" in="SourceGraphic" in2="BackgroundImageFix" result="shape"/>
<feColorMatrix in="SourceAlpha" type="matrix" values="0 0 0 0 0 0 0 0 0 0 0 0 0 0 0 0 0 0 127 0" result="hardAlpha"/>
<feOffset dx="-1" dy="-1"/>
<feGaussianBlur stdDeviation="1"/>
<feComposite in2="hardAlpha" operator="arithmetic" k2="-1" k3="1"/>
<feColorMatrix type="matrix" values="0 0 0 0 1 0 0 0 0 1 0 0 0 0 1 0 0 0 0.2 0"/>
<feBlend mode="normal" in2="shape" result="effect1_innerShadow_2920_42879"/>
<feColorMatrix in="SourceAlpha" type="matrix" values="0 0 0 0 0 0 0 0 0 0 0 0 0 0 0 0 0 0 127 0" result="hardAlpha"/>
<feOffset dx="3" dy="3"/>
<feGaussianBlur stdDeviation="3"/>
<feComposite in2="hardAlpha" operator="arithmetic" k2="-1" k3="1"/>
<feColorMatrix type="matrix" values="0 0 0 0 0 0 0 0 0 0 0 0 0 0 0 0 0 0 0.4 0"/>
<feBlend mode="normal" in2="effect1_innerShadow_2920_42879" result="effect2_innerShadow_2920_42879"/>
</filter>
</defs>
</svg>
